<svg xmlns="http://www.w3.org/2000/svg" viewBox="0 0 516 731.59"><defs><style>.cls-1,.cls-2,.cls-3,.cls-4{fill:#23527c;}.cls-2,.cls-3,.cls-4{stroke:#fff;stroke-miterlimit:10;}.cls-2{stroke-width:7px;}.cls-3{stroke-width:6px;}.cls-4{stroke-width:3px;}</style></defs><title>Asset 19</title><g id="Layer_2" data-name="Layer 2"><g id="Layer_2-2" data-name="Layer 2"><circle class="cls-1" cx="258" cy="258" r="258"/><path class="cls-2" d="M194.59,135H321.18a55.64,55.64,0,0,1,55.64,55.64V316.17a0,0,0,0,1,0,0H140.95a0,0,0,0,1,0,0V188.64A53.64,53.64,0,0,1,194.59,135Z"/><rect class="cls-3" x="173" y="168.74" width="66.12" height="65.97"/><circle class="cls-3" cx="186.86" cy="284.44" r="19.78"/><circle class="cls-3" cx="334.65" cy="284.44" r="19.78"/><path class="cls-3" d="M151,316.4H193.2a0,0,0,0,1,0,0v21.51a20.56,20.56,0,0,1-20.56,20.56h-1.13A20.49,20.49,0,0,1,151,338V316.4A0,0,0,0,1,151,316.4Z"/><path class="cls-3" d="M330.17,316.4h42.17a0,0,0,0,1,0,0v21.51a20.56,20.56,0,0,1-20.56,20.56h-1.13A20.49,20.49,0,0,1,330.17,338V316.4A0,0,0,0,1,330.17,316.4Z"/><path class="cls-3" d="M376.48,187h7.8a12.2,12.2,0,0,1,12.2,12.2v7.59a14.92,14.92,0,0,1-14.92,14.92h-5.08a0,0,0,0,1,0,0V187a0,0,0,0,1,0,0Z"/><path class="cls-3" d="M119.3,187h7.58a12.2,12.2,0,0,1,12.2,12.2v7.59a14.92,14.92,0,0,1-14.92,14.92H119.3a0,0,0,0,1,0,0V187A0,0,0,0,1,119.3,187Z" transform="translate(258.38 408.78) rotate(180)"/><rect class="cls-3" x="289" y="169.07" width="65.8" height="65.64"/><polygon class="cls-4" points="258.38 728.47 337.5 584.5 179.25 584.5 258.38 728.47"/><rect class="cls-4" x="172.84" y="532.5" width="172.66" height="25"/></g></g></svg>